<svg xmlns="http://www.w3.org/2000/svg" width="30.61" height="25.658" viewBox="0 0 30.61 25.658"><g transform="translate(3.062) rotate(8)"><g transform="translate(0 0)"><path d="M27.819,2.6a11.639,11.639,0,0,1-3.277.875A5.608,5.608,0,0,0,27.051.406a11.7,11.7,0,0,1-3.626,1.349A5.764,5.764,0,0,0,19.259,0a5.633,5.633,0,0,0-5.707,5.555A5.431,5.431,0,0,0,13.7,6.821,16.352,16.352,0,0,1,1.938,1.015a5.4,5.4,0,0,0-.772,2.793A5.516,5.516,0,0,0,3.7,8.432a5.826,5.826,0,0,1-2.585-.7V7.8A5.6,5.6,0,0,0,5.7,13.252a5.928,5.928,0,0,1-1.5.195,5.622,5.622,0,0,1-1.074-.1A5.693,5.693,0,0,0,8.449,17.2a11.649,11.649,0,0,1-7.087,2.375A12.454,12.454,0,0,1,0,19.5,16.451,16.451,0,0,0,8.748,22,15.9,15.9,0,0,0,24.984,6.193l-.019-.719A11.236,11.236,0,0,0,27.819,2.6Z" fill="#fff"/></g></g></svg>