<svg xmlns="http://www.w3.org/2000/svg" width="14.783" height="11.615" viewBox="0 0 14.783 11.615"><g transform="translate(0 -59.013)"><g transform="translate(0 59.013)"><path d="M29.954,328.041a1.263,1.263,0,0,0,.865-.326l-4.188-4.188-.29.208q-.47.346-.763.54a4.7,4.7,0,0,1-.78.4,2.376,2.376,0,0,1-.908.2h-.016a2.375,2.375,0,0,1-.908-.2,4.689,4.689,0,0,1-.78-.4q-.293-.194-.763-.54l-.289-.21-4.189,4.19a1.264,1.264,0,0,0,.865.326Z" transform="translate(-16.491 -316.425)" fill="#fff"/><path d="M.833,199.273A4.374,4.374,0,0,1,0,198.555v6.372l3.692-3.692Q2.584,200.462.833,199.273Z" transform="translate(0 -194.81)" fill="#fff"/><path d="M416.174,199.273q-1.685,1.141-2.865,1.965l3.69,3.69v-6.373A4.552,4.552,0,0,1,416.174,199.273Z" transform="translate(-402.216 -194.81)" fill="#fff"/><path d="M13.469,59.013H1.326a1.178,1.178,0,0,0-.978.429,1.664,1.664,0,0,0-.342,1.072A1.928,1.928,0,0,0,.46,61.641a4.093,4.093,0,0,0,.965.953q.28.2,1.691,1.176c.508.352.949.659,1.329.923l.833.582.123.088.227.164q.268.194.445.314t.429.268a2.5,2.5,0,0,0,.474.223,1.313,1.313,0,0,0,.412.074h.016a1.313,1.313,0,0,0,.412-.074,2.5,2.5,0,0,0,.474-.223q.252-.149.429-.268t.445-.314l.227-.164.123-.088.835-.58,3.026-2.1a3.924,3.924,0,0,0,1.006-1.015,2.183,2.183,0,0,0,.4-1.246,1.331,1.331,0,0,0-1.32-1.32Z" transform="translate(-0.006 -59.013)" fill="#fff"/></g></g></svg>