<svg xmlns="http://www.w3.org/2000/svg" width="57.382" height="62.906" viewBox="0 0 57.382 62.906"><g transform="translate(-999 -2157)"><g transform="translate(592.928 2145.999)"><path d="M437.017,107.859c2.032.989,2.032.989,1.291,2.961-.586,1.561-1.2,3.112-1.749,4.685-.34.973-.833,1.167-1.841.836-4.315-1.417-4.391-1.409-2.712-5.559a5.072,5.072,0,0,0-.059-4.414c-1.583-3.438-2.958-6.974-4.37-10.489a1.637,1.637,0,0,0-1.756-1.224,9.286,9.286,0,0,0-8.252,4.269q-3.816,5.662-7.395,11.482c-2.1,3.429-1.841,4.927.983,7.754,1.826,1.828,3.643,3.665,5.485,5.478,1.155,1.137,2.506,1.221,3.495.268,1.085-1.046,1.034-2.329-.2-3.587-1.7-1.737-3.4-3.482-5.168-5.149a1.856,1.856,0,0,1-.207-2.887c1.745-2.3,3.364-4.691,5.143-6.96a2.34,2.34,0,0,1,1.84-.817c.392.064.849,1.043.906,1.649.69,7.307,1.3,14.621,1.965,21.931.091,1,.065,1.954-1.1,2.123-1.222.178-1.477-.746-1.532-1.762-.037-.693-.171-1.382-.266-2.1-3.59,1.445-4.816,1.189-7.519-1.517-1.791-1.792-3.6-3.568-5.364-5.385-2.782-2.862-3.392-5.8-1.371-9.245,2.758-4.707,5.676-9.343,8.854-13.773a10.976,10.976,0,0,1,9.237-4.466c6.283-.036,12.566-.048,18.849,0a11.258,11.258,0,0,1,9.528,4.814c2.962,4.217,5.719,8.589,8.373,13.009,2.192,3.65,1.679,6.722-1.288,9.772-1.731,1.78-3.569,3.459-5.241,5.291-2.145,2.349-4.513,3.173-7.53,1.38a10.7,10.7,0,0,1-.349,2.513c-.232.586-.82,1.372-1.327,1.433-.97.117-1.352-.719-1.273-1.647q.581-6.809,1.189-13.615c.259-2.924.486-5.852.827-8.767.071-.607.52-1.584.908-1.642a2.353,2.353,0,0,1,1.84.824c1.806,2.312,3.457,4.744,5.224,7.089a1.737,1.737,0,0,1-.2,2.651c-1.746,1.692-3.458,3.421-5.167,5.151-1.328,1.343-1.417,2.623-.295,3.69,1.034.983,2.357.858,3.6-.378,2.016-2,4.033-3.993,6.017-6.022,1.961-2.006,2.335-3.6.88-6.02-2.736-4.549-5.536-9.076-8.609-13.4a8.458,8.458,0,0,0-8.04-3.371,1.532,1.532,0,0,0-1.054.78C440.465,99.578,438.766,103.681,437.017,107.859ZM430,94.745l4.782,11.486,4.781-11.486Zm-9.257,22.207-.681-7.594-2.905,3.993Zm28.737-7.617c-.229,2.78-.425,5.146-.625,7.572l3.635-3.469Z" transform="translate(0 -56.324)" fill="#f92524"/><path d="M486.462,22.085A10.877,10.877,0,1,1,475.6,11,10.922,10.922,0,0,1,486.462,22.085Zm-10.9,8.069a8.209,8.209,0,1,0-8.248-8.343A8.28,8.28,0,0,0,475.562,30.154Z" transform="translate(-40.81 0)" fill="#f92524"/></g></g></svg>