<svg xmlns="http://www.w3.org/2000/svg" width="16.6" height="16.601" viewBox="0 0 16.6 16.601"><g transform="translate(-0.006)"><g transform="translate(0.006)"><path d="M12.626,55.525a1.163,1.163,0,0,0-1.758,0c-.411.408-.822.815-1.226,1.23a.242.242,0,0,1-.339.062c-.266-.145-.549-.263-.8-.421a12.753,12.753,0,0,1-3.074-2.8,7.284,7.284,0,0,1-1.1-1.765.253.253,0,0,1,.062-.325c.411-.4.812-.8,1.216-1.213a1.168,1.168,0,0,0,0-1.8c-.321-.325-.643-.643-.964-.967s-.66-.667-.995-.995a1.171,1.171,0,0,0-1.758,0c-.415.408-.812.826-1.233,1.226a2,2,0,0,0-.629,1.351A5.723,5.723,0,0,0,.46,51.577,14.967,14.967,0,0,0,3.116,56a16.439,16.439,0,0,0,5.444,4.259,7.874,7.874,0,0,0,3.016.877,2.21,2.21,0,0,0,1.9-.722c.352-.394.75-.753,1.123-1.13A1.175,1.175,0,0,0,14.6,57.5Q13.618,56.508,12.626,55.525Z" transform="translate(-0.006 -44.544)" fill="#fff"/><path d="M241.6,100.912l1.275-.218A5.722,5.722,0,0,0,238.034,96l-.18,1.282a4.422,4.422,0,0,1,3.745,3.631Z" transform="translate(-229.638 -92.684)" fill="#fff"/><path d="M248.323,2.688A9.4,9.4,0,0,0,242.934,0l-.18,1.282a8.2,8.2,0,0,1,6.94,6.726l1.275-.218A9.468,9.468,0,0,0,248.323,2.688Z" transform="translate(-234.368)" fill="#fff"/></g></g></svg>