<svg xmlns="http://www.w3.org/2000/svg" width="35.379" height="55.705" viewBox="0 0 35.379 55.705"><g transform="translate(589.865 -1)"><path d="M-496.658,1c.433.119.875.214,1.3.36a7.124,7.124,0,0,1,4.793,7.44,7.289,7.289,0,0,1-6.221,6.088,7.117,7.117,0,0,1-6.821-3.774,6.592,6.592,0,0,1,.815-7.505,7.056,7.056,0,0,1,4.311-2.522A.832.832,0,0,0-498.289,1Zm3.818,6.983a4.449,4.449,0,0,0-4.578-4.671A4.458,4.458,0,0,0-502.1,7.934a4.458,4.458,0,0,0,4.635,4.671A4.449,4.449,0,0,0-492.84,7.983Z" transform="translate(-76.152)" fill="#f92524"/><path d="M-578.357,165.236a6.252,6.252,0,0,0-2.051,3.474,8.929,8.929,0,0,0-.172,1.453,4.64,4.64,0,0,1-4.98,4.617,4.851,4.851,0,0,1-4.3-5.016c.346-6.149,3.173-10.886,8.635-13.7,5.071-2.614,10.153-2.108,14.932,1.046a12.907,12.907,0,0,1,1.435,1.074,17.388,17.388,0,0,0,6.9,3.42,4.909,4.909,0,0,1,3.316,5.758,4.646,4.646,0,0,1-5.929,3.149,25.949,25.949,0,0,1-8.369-3.83c0,1.191-.023,2.281.02,3.369.008.2.251.43.434.591a36.831,36.831,0,0,1,10.83,16.507,4.483,4.483,0,0,1-1.164,4.946,4.394,4.394,0,0,1-4.886.954,4.7,4.7,0,0,1-2.789-3.073,27.674,27.674,0,0,0-4.239-8.21q-.147-.2-.3-.385a.987.987,0,0,0-.141-.1c-.077.188-.152.359-.219.534a37.335,37.335,0,0,1-5.518,9.742,4.832,4.832,0,0,1-6.59.776,4.833,4.833,0,0,1-.578-6.648,22.343,22.343,0,0,0,4.593-8.419,32.071,32.071,0,0,0,1.118-7.281C-578.295,168.424-578.357,166.864-578.357,165.236Zm7.061,1.928q0-1.386,0-2.772a1.092,1.092,0,0,1,.63-1.057,1.275,1.275,0,0,1,1.494.3,24.2,24.2,0,0,0,9.5,4.724,2.287,2.287,0,0,0,2.772-1.484,2.273,2.273,0,0,0-1.423-2.945c-.65-.221-1.3-.45-1.953-.651a15.148,15.148,0,0,1-4.487-2.139c-.822-.593-1.627-1.211-2.439-1.819a11.892,11.892,0,0,0-14.325-.423,12.987,12.987,0,0,0-6,11.192,2.261,2.261,0,0,0,2.049,2.4,2.418,2.418,0,0,0,2.588-2.251,9.152,9.152,0,0,1,5.146-8.169,1.157,1.157,0,0,1,1.8,1.133c0,1.576.007,3.152-.007,4.728a39.937,39.937,0,0,1-1.134,9.416,23.64,23.64,0,0,1-3.953,8.219c-.46.628-.969,1.219-1.437,1.841a2.044,2.044,0,0,0,0,2.694,2.259,2.259,0,0,0,3.81-.064,33.93,33.93,0,0,0,5.866-11.3,1.241,1.241,0,0,1,.955-1,1.307,1.307,0,0,1,1.278.548,32.026,32.026,0,0,1,6.4,11.249,2.576,2.576,0,0,0,.986,1.224,2.187,2.187,0,0,0,2.587-.135,2.211,2.211,0,0,0,.783-2.614,34.037,34.037,0,0,0-10.128-15.544A3.708,3.708,0,0,1-571.3,169.5C-571.287,168.722-571.3,167.943-571.3,167.164Z" transform="translate(0 -136.704)" fill="#f92524"/></g></svg>