<svg xmlns="http://www.w3.org/2000/svg" width="424" height="424" viewBox="0 0 424 424"><g transform="translate(-683 -2443)" opacity="0.46"><circle cx="4.5" cy="4.5" r="4.5" transform="translate(683 2443)" fill="#b6b8bd"/><circle cx="4.5" cy="4.5" r="4.5" transform="translate(718 2443)" fill="#b6b8bd"/><circle cx="4.5" cy="4.5" r="4.5" transform="translate(752 2443)" fill="#b6b8bd"/><circle cx="4.5" cy="4.5" r="4.5" transform="translate(787 2443)" fill="#b6b8bd"/><circle cx="4.5" cy="4.5" r="4.5" transform="translate(821 2443)" fill="#b6b8bd"/><circle cx="4.5" cy="4.5" r="4.5" transform="translate(856 2443)" fill="#b6b8bd"/><circle cx="4.5" cy="4.5" r="4.5" transform="translate(891 2443)" fill="#b6b8bd"/><circle cx="4.5" cy="4.5" r="4.5" transform="translate(925 2443)" fill="#b6b8bd"/><circle cx="4.5" cy="4.5" r="4.5" transform="translate(960 2443)" fill="#b6b8bd"/><circle cx="4.5" cy="4.5" r="4.5" transform="translate(994 2443)" fill="#b6b8bd"/><circle cx="4.5" cy="4.5" r="4.5" transform="translate(1029 2443)" fill="#b6b8bd"/><circle cx="4.5" cy="4.5" r="4.5" transform="translate(1063 2443)" fill="#b6b8bd"/><circle cx="4.5" cy="4.5" r="4.5" transform="translate(1098 2443)" fill="#b6b8bd"/><g transform="translate(0 42)"><circle cx="4.5" cy="4.5" r="4.5" transform="translate(683 2443)" fill="#b6b8bd"/><circle cx="4.5" cy="4.5" r="4.5" transform="translate(718 2443)" fill="#b6b8bd"/><circle cx="4.5" cy="4.5" r="4.5" transform="translate(752 2443)" fill="#b6b8bd"/><circle cx="4.5" cy="4.5" r="4.5" transform="translate(787 2443)" fill="#b6b8bd"/><circle cx="4.5" cy="4.5" r="4.5" transform="translate(821 2443)" fill="#b6b8bd"/><circle cx="4.5" cy="4.5" r="4.5" transform="translate(856 2443)" fill="#b6b8bd"/><circle cx="4.5" cy="4.5" r="4.5" transform="translate(891 2443)" fill="#b6b8bd"/><circle cx="4.5" cy="4.5" r="4.5" transform="translate(925 2443)" fill="#b6b8bd"/><circle cx="4.5" cy="4.5" r="4.5" transform="translate(960 2443)" fill="#b6b8bd"/><circle cx="4.5" cy="4.5" r="4.5" transform="translate(994 2443)" fill="#b6b8bd"/><circle cx="4.5" cy="4.5" r="4.5" transform="translate(1029 2443)" fill="#b6b8bd"/><circle cx="4.5" cy="4.5" r="4.5" transform="translate(1063 2443)" fill="#b6b8bd"/><circle cx="4.5" cy="4.5" r="4.5" transform="translate(1098 2443)" fill="#b6b8bd"/></g><g transform="translate(0 83)"><circle cx="4.5" cy="4.5" r="4.5" transform="translate(683 2443)" fill="#b6b8bd"/><circle cx="4.5" cy="4.5" r="4.5" transform="translate(718 2443)" fill="#b6b8bd"/><circle cx="4.5" cy="4.5" r="4.5" transform="translate(752 2443)" fill="#b6b8bd"/><circle cx="4.5" cy="4.5" r="4.5" transform="translate(787 2443)" fill="#b6b8bd"/><circle cx="4.5" cy="4.5" r="4.5" transform="translate(821 2443)" fill="#b6b8bd"/><circle cx="4.5" cy="4.5" r="4.5" transform="translate(856 2443)" fill="#b6b8bd"/><circle cx="4.5" cy="4.5" r="4.5" transform="translate(891 2443)" fill="#b6b8bd"/><circle cx="4.5" cy="4.5" r="4.5" transform="translate(925 2443)" fill="#b6b8bd"/><circle cx="4.5" cy="4.5" r="4.5" transform="translate(960 2443)" fill="#b6b8bd"/><circle cx="4.5" cy="4.5" r="4.5" transform="translate(994 2443)" fill="#b6b8bd"/><circle cx="4.5" cy="4.5" r="4.5" transform="translate(1029 2443)" fill="#b6b8bd"/><circle cx="4.5" cy="4.5" r="4.5" transform="translate(1063 2443)" fill="#b6b8bd"/><circle cx="4.5" cy="4.5" r="4.5" transform="translate(1098 2443)" fill="#b6b8bd"/></g><g transform="translate(0 125)"><circle cx="4.5" cy="4.5" r="4.5" transform="translate(683 2443)" fill="#b6b8bd"/><circle cx="4.5" cy="4.5" r="4.5" transform="translate(718 2443)" fill="#b6b8bd"/><circle cx="4.5" cy="4.5" r="4.5" transform="translate(752 2443)" fill="#b6b8bd"/><circle cx="4.5" cy="4.5" r="4.5" transform="translate(787 2443)" fill="#b6b8bd"/><circle cx="4.5" cy="4.5" r="4.5" transform="translate(821 2443)" fill="#b6b8bd"/><circle cx="4.5" cy="4.5" r="4.5" transform="translate(856 2443)" fill="#b6b8bd"/><circle cx="4.5" cy="4.5" r="4.5" transform="translate(891 2443)" fill="#b6b8bd"/><circle cx="4.5" cy="4.5" r="4.5" transform="translate(925 2443)" fill="#b6b8bd"/><circle cx="4.5" cy="4.5" r="4.5" transform="translate(960 2443)" fill="#b6b8bd"/><circle cx="4.5" cy="4.5" r="4.5" transform="translate(994 2443)" fill="#b6b8bd"/><circle cx="4.5" cy="4.5" r="4.5" transform="translate(1029 2443)" fill="#b6b8bd"/><circle cx="4.5" cy="4.5" r="4.5" transform="translate(1063 2443)" fill="#b6b8bd"/><circle cx="4.5" cy="4.5" r="4.5" transform="translate(1098 2443)" fill="#b6b8bd"/></g><g transform="translate(0 166)"><circle cx="4.5" cy="4.5" r="4.5" transform="translate(683 2443)" fill="#b6b8bd"/><circle cx="4.5" cy="4.5" r="4.5" transform="translate(718 2443)" fill="#b6b8bd"/><circle cx="4.5" cy="4.5" r="4.5" transform="translate(752 2443)" fill="#b6b8bd"/><circle cx="4.5" cy="4.5" r="4.5" transform="translate(787 2443)" fill="#b6b8bd"/><circle cx="4.5" cy="4.5" r="4.5" transform="translate(821 2443)" fill="#b6b8bd"/><circle cx="4.5" cy="4.5" r="4.5" transform="translate(856 2443)" fill="#b6b8bd"/><circle cx="4.5" cy="4.5" r="4.5" transform="translate(891 2443)" fill="#b6b8bd"/><circle cx="4.5" cy="4.5" r="4.5" transform="translate(925 2443)" fill="#b6b8bd"/><circle cx="4.5" cy="4.5" r="4.5" transform="translate(960 2443)" fill="#b6b8bd"/><circle cx="4.5" cy="4.5" r="4.5" transform="translate(994 2443)" fill="#b6b8bd"/><circle cx="4.5" cy="4.5" r="4.5" transform="translate(1029 2443)" fill="#b6b8bd"/><circle cx="4.5" cy="4.5" r="4.5" transform="translate(1063 2443)" fill="#b6b8bd"/><circle cx="4.5" cy="4.5" r="4.5" transform="translate(1098 2443)" fill="#b6b8bd"/></g><g transform="translate(0 208)"><circle cx="4.5" cy="4.5" r="4.5" transform="translate(683 2443)" fill="#b6b8bd"/><circle cx="4.5" cy="4.5" r="4.5" transform="translate(718 2443)" fill="#b6b8bd"/><circle cx="4.5" cy="4.5" r="4.5" transform="translate(752 2443)" fill="#b6b8bd"/><circle cx="4.5" cy="4.5" r="4.5" transform="translate(787 2443)" fill="#b6b8bd"/><circle cx="4.5" cy="4.5" r="4.5" transform="translate(821 2443)" fill="#b6b8bd"/><circle cx="4.5" cy="4.5" r="4.5" transform="translate(856 2443)" fill="#b6b8bd"/><circle cx="4.5" cy="4.5" r="4.5" transform="translate(891 2443)" fill="#b6b8bd"/><circle cx="4.5" cy="4.5" r="4.5" transform="translate(925 2443)" fill="#b6b8bd"/><circle cx="4.5" cy="4.5" r="4.5" transform="translate(960 2443)" fill="#b6b8bd"/><circle cx="4.5" cy="4.5" r="4.5" transform="translate(994 2443)" fill="#b6b8bd"/><circle cx="4.5" cy="4.5" r="4.5" transform="translate(1029 2443)" fill="#b6b8bd"/><circle cx="4.5" cy="4.5" r="4.5" transform="translate(1063 2443)" fill="#b6b8bd"/><circle cx="4.5" cy="4.5" r="4.5" transform="translate(1098 2443)" fill="#b6b8bd"/></g><g transform="translate(0 249)"><circle cx="4.5" cy="4.5" r="4.5" transform="translate(683 2443)" fill="#b6b8bd"/><circle cx="4.5" cy="4.5" r="4.5" transform="translate(718 2443)" fill="#b6b8bd"/><circle cx="4.5" cy="4.5" r="4.5" transform="translate(752 2443)" fill="#b6b8bd"/><circle cx="4.5" cy="4.5" r="4.5" transform="translate(787 2443)" fill="#b6b8bd"/><circle cx="4.5" cy="4.5" r="4.5" transform="translate(821 2443)" fill="#b6b8bd"/><circle cx="4.5" cy="4.5" r="4.5" transform="translate(856 2443)" fill="#b6b8bd"/><circle cx="4.5" cy="4.5" r="4.5" transform="translate(891 2443)" fill="#b6b8bd"/><circle cx="4.5" cy="4.5" r="4.5" transform="translate(925 2443)" fill="#b6b8bd"/><circle cx="4.5" cy="4.5" r="4.5" transform="translate(960 2443)" fill="#b6b8bd"/><circle cx="4.5" cy="4.5" r="4.5" transform="translate(994 2443)" fill="#b6b8bd"/><circle cx="4.5" cy="4.5" r="4.5" transform="translate(1029 2443)" fill="#b6b8bd"/><circle cx="4.5" cy="4.5" r="4.5" transform="translate(1063 2443)" fill="#b6b8bd"/><circle cx="4.5" cy="4.5" r="4.5" transform="translate(1098 2443)" fill="#b6b8bd"/></g><g transform="translate(0 291)"><circle cx="4.5" cy="4.5" r="4.5" transform="translate(683 2443)" fill="#b6b8bd"/><circle cx="4.5" cy="4.5" r="4.5" transform="translate(718 2443)" fill="#b6b8bd"/><circle cx="4.5" cy="4.5" r="4.5" transform="translate(752 2443)" fill="#b6b8bd"/><circle cx="4.5" cy="4.5" r="4.5" transform="translate(787 2443)" fill="#b6b8bd"/><circle cx="4.5" cy="4.5" r="4.5" transform="translate(821 2443)" fill="#b6b8bd"/><circle cx="4.5" cy="4.5" r="4.5" transform="translate(856 2443)" fill="#b6b8bd"/><circle cx="4.5" cy="4.5" r="4.5" transform="translate(891 2443)" fill="#b6b8bd"/><circle cx="4.5" cy="4.5" r="4.5" transform="translate(925 2443)" fill="#b6b8bd"/><circle cx="4.5" cy="4.5" r="4.5" transform="translate(960 2443)" fill="#b6b8bd"/><circle cx="4.5" cy="4.5" r="4.5" transform="translate(994 2443)" fill="#b6b8bd"/><circle cx="4.5" cy="4.5" r="4.5" transform="translate(1029 2443)" fill="#b6b8bd"/><circle cx="4.5" cy="4.5" r="4.5" transform="translate(1063 2443)" fill="#b6b8bd"/><circle cx="4.5" cy="4.5" r="4.5" transform="translate(1098 2443)" fill="#b6b8bd"/></g><g transform="translate(0 332)"><circle cx="4.5" cy="4.5" r="4.5" transform="translate(683 2443)" fill="#b6b8bd"/><circle cx="4.5" cy="4.5" r="4.5" transform="translate(718 2443)" fill="#b6b8bd"/><circle cx="4.5" cy="4.5" r="4.5" transform="translate(752 2443)" fill="#b6b8bd"/><circle cx="4.5" cy="4.5" r="4.5" transform="translate(787 2443)" fill="#b6b8bd"/><circle cx="4.5" cy="4.5" r="4.5" transform="translate(821 2443)" fill="#b6b8bd"/><circle cx="4.5" cy="4.5" r="4.5" transform="translate(856 2443)" fill="#b6b8bd"/><circle cx="4.5" cy="4.5" r="4.5" transform="translate(891 2443)" fill="#b6b8bd"/><circle cx="4.5" cy="4.5" r="4.5" transform="translate(925 2443)" fill="#b6b8bd"/><circle cx="4.5" cy="4.5" r="4.5" transform="translate(960 2443)" fill="#b6b8bd"/><circle cx="4.5" cy="4.5" r="4.5" transform="translate(994 2443)" fill="#b6b8bd"/><circle cx="4.5" cy="4.5" r="4.5" transform="translate(1029 2443)" fill="#b6b8bd"/><circle cx="4.5" cy="4.5" r="4.5" transform="translate(1063 2443)" fill="#b6b8bd"/><circle cx="4.5" cy="4.5" r="4.5" transform="translate(1098 2443)" fill="#b6b8bd"/></g><g transform="translate(0 374)"><circle cx="4.5" cy="4.5" r="4.5" transform="translate(683 2443)" fill="#b6b8bd"/><circle cx="4.5" cy="4.5" r="4.5" transform="translate(718 2443)" fill="#b6b8bd"/><circle cx="4.5" cy="4.5" r="4.5" transform="translate(752 2443)" fill="#b6b8bd"/><circle cx="4.5" cy="4.5" r="4.5" transform="translate(787 2443)" fill="#b6b8bd"/><circle cx="4.5" cy="4.5" r="4.5" transform="translate(821 2443)" fill="#b6b8bd"/><circle cx="4.5" cy="4.5" r="4.5" transform="translate(856 2443)" fill="#b6b8bd"/><circle cx="4.5" cy="4.5" r="4.5" transform="translate(891 2443)" fill="#b6b8bd"/><circle cx="4.5" cy="4.5" r="4.5" transform="translate(925 2443)" fill="#b6b8bd"/><circle cx="4.5" cy="4.5" r="4.5" transform="translate(960 2443)" fill="#b6b8bd"/><circle cx="4.5" cy="4.5" r="4.5" transform="translate(994 2443)" fill="#b6b8bd"/><circle cx="4.5" cy="4.5" r="4.5" transform="translate(1029 2443)" fill="#b6b8bd"/><circle cx="4.5" cy="4.5" r="4.5" transform="translate(1063 2443)" fill="#b6b8bd"/><circle cx="4.5" cy="4.5" r="4.5" transform="translate(1098 2443)" fill="#b6b8bd"/></g><g transform="translate(0 415)"><circle cx="4.5" cy="4.5" r="4.5" transform="translate(683 2443)" fill="#b6b8bd"/><circle cx="4.5" cy="4.5" r="4.5" transform="translate(718 2443)" fill="#b6b8bd"/><circle cx="4.5" cy="4.5" r="4.5" transform="translate(752 2443)" fill="#b6b8bd"/><circle cx="4.5" cy="4.5" r="4.5" transform="translate(787 2443)" fill="#b6b8bd"/><circle cx="4.5" cy="4.5" r="4.5" transform="translate(821 2443)" fill="#b6b8bd"/><circle cx="4.5" cy="4.5" r="4.5" transform="translate(856 2443)" fill="#b6b8bd"/><circle cx="4.5" cy="4.5" r="4.5" transform="translate(891 2443)" fill="#b6b8bd"/><circle cx="4.5" cy="4.5" r="4.5" transform="translate(925 2443)" fill="#b6b8bd"/><circle cx="4.5" cy="4.5" r="4.5" transform="translate(960 2443)" fill="#b6b8bd"/><circle cx="4.5" cy="4.5" r="4.5" transform="translate(994 2443)" fill="#b6b8bd"/><circle cx="4.5" cy="4.5" r="4.5" transform="translate(1029 2443)" fill="#b6b8bd"/><circle cx="4.5" cy="4.5" r="4.5" transform="translate(1063 2443)" fill="#b6b8bd"/><circle cx="4.5" cy="4.5" r="4.5" transform="translate(1098 2443)" fill="#b6b8bd"/></g></g></svg>